<?xml version="1.0" encoding="utf-8"?>
<!-- Generator: Adobe Illustrator 22.0.0, SVG Export Plug-In . SVG Version: 6.00 Build 0)  -->
<svg version="1.1" id="Capa_1" xmlns="http://www.w3.org/2000/svg" xmlns:xlink="http://www.w3.org/1999/xlink" x="0px" y="0px"
	 viewBox="0 0 512 512" style="enable-background:new 0 0 512 512;" xml:space="preserve">
<style type="text/css">
	.st0{fill:#D6B045;}
</style>
<g id="XMLID_1326_">
	<g id="XMLID_133_">
		<path id="XMLID_158_" class="st0" d="M510.1,215l-82-112.9c-1.9-2.6-4.9-4.1-8.1-4.1H92c-3.2,0-6.2,1.5-8.1,4.1L1.9,215
			c-2.9,4-2.5,9.5,1,12.9l246,246c1.9,1.9,4.4,2.9,7.1,2.9c2.7,0,5.2-1.1,7.1-2.9l91.2-91.2c3.9-3.9,3.9-10.2,0-14.1
			c-3.9-3.9-10.2-3.9-14.1,0l-61.2,61.2l66.3-199h132.7L403.7,305c-3.9,3.9-3.9,10.2,0,14.1c3.9,3.9,10.2,3.9,14.1,0l91.2-91.2
			C512.5,224.5,513,219,510.1,215L510.1,215z M482.4,210.9H357.6L420,125L482.4,210.9z M92,125l62.4,85.9H29.6L92,125z M275.6,118
			h124.8L338,203.9L275.6,118z M318.4,210.9H193.6L256,125L318.4,210.9z M174,203.9L111.6,118h124.8L174,203.9z M166.8,230.9
			l66.3,199l-199-199H166.8z M187.9,230.9h136.3L256,435.3L187.9,230.9z"/>
		<path id="XMLID_165_" class="st0" d="M50,33.3c5.5,0,10-4.5,10-10V10c0-5.5-4.5-10-10-10S40,4.5,40,10v13.3
			C40,28.9,44.5,33.3,50,33.3z"/>
		<path id="XMLID_166_" class="st0" d="M50,100c5.5,0,10-4.5,10-10V76.7c0-5.5-4.5-10-10-10s-10,4.5-10,10V90
			C40,95.5,44.5,100,50,100z"/>
		<path id="XMLID_858_" class="st0" d="M76.7,60H90c5.5,0,10-4.5,10-10s-4.5-10-10-10H76.7c-5.5,0-10,4.5-10,10S71.1,60,76.7,60z"/>
		<path id="XMLID_866_" class="st0" d="M10,60h13.3c5.5,0,10-4.5,10-10s-4.5-10-10-10H10C4.5,40,0,44.5,0,50S4.5,60,10,60z"/>
		<path id="XMLID_867_" class="st0" d="M448,412c-5.5,0-10,4.5-10,10v13.3c0,5.5,4.5,10,10,10c5.5,0,10-4.5,10-10V422
			C458,416.5,453.5,412,448,412z"/>
		<path id="XMLID_868_" class="st0" d="M448,478.7c-5.5,0-10,4.5-10,10V502c0,5.5,4.5,10,10,10c5.5,0,10-4.5,10-10v-13.3
			C458,483.1,453.5,478.7,448,478.7z"/>
		<path id="XMLID_946_" class="st0" d="M488,452h-13.3c-5.5,0-10,4.5-10,10s4.5,10,10,10H488c5.5,0,10-4.5,10-10S493.5,452,488,452z
			"/>
		<path id="XMLID_947_" class="st0" d="M421.3,452H408c-5.5,0-10,4.5-10,10s4.5,10,10,10h13.3c5.5,0,10-4.5,10-10
			S426.9,452,421.3,452z"/>
		<path id="XMLID_948_" class="st0" d="M379,333.9c-2.6,0-5.2,1.1-7.1,2.9s-2.9,4.4-2.9,7.1s1.1,5.2,2.9,7.1
			c1.9,1.9,4.4,2.9,7.1,2.9s5.2-1.1,7.1-2.9c1.9-1.9,2.9-4.4,2.9-7.1s-1.1-5.2-2.9-7.1C384.2,335,381.6,333.9,379,333.9z"/>
	</g>
</g>
</svg>
