<?xml version="1.0" encoding="utf-8"?>
<!-- Generator: Adobe Illustrator 22.0.0, SVG Export Plug-In . SVG Version: 6.00 Build 0)  -->
<svg version="1.1" id="Capa_1" xmlns="http://www.w3.org/2000/svg" xmlns:xlink="http://www.w3.org/1999/xlink" x="0px" y="0px"
	 viewBox="0 0 512 512" style="enable-background:new 0 0 512 512;" xml:space="preserve">
<style type="text/css">
	.st0{fill:#D6B045;}
</style>
<path class="st0" d="M316,260c-5.5,0-10,4.5-10,10s4.5,10,10,10s10-4.5,10-10S321.5,260,316,260z"/>
<path class="st0" d="M2.5,236.6C2.5,236.6,2.5,236.7,2.5,236.6c0.1,0.1,0.1,0.1,0.1,0.1l246,272c1.8,2,4.6,3.3,7.4,3.3
	c2.8,0,5.6-1.3,7.4-3.3l246-272c0,0,0,0,0,0c0,0,0.1-0.1,0.1-0.1c3.2-3.6,3.3-9,0.4-12.7c0,0,0-0.1-0.1-0.1l-80-100
	c-1.9-2.4-4.8-3.8-7.8-3.8c-40.8,0-298.8,0-332,0c-3,0-5.9,1.4-7.8,3.8l-80,100c0,0,0,0.1-0.1,0.1C-0.8,227.6-0.7,233,2.5,236.6z
	 M201.7,140h108.7l48,80H153.7L201.7,140z M151.3,240h209.3L256,477.2L151.3,240z M382.5,240h97L290.2,449.3L382.5,240z M129.5,240
	l92.3,209.3L32.5,240H129.5z M481.2,220h-99.5l-48-80h83.5L481.2,220z M94.8,140h83.5l-48,80H30.8L94.8,140z"/>
<path class="st0" d="M276,260h-74.2c-5.5,0-10,4.5-10,10s4.5,10,10,10H276c5.5,0,10-4.5,10-10S281.5,260,276,260z"/>
<path class="st0" d="M256,80c5.5,0,10-4.5,10-10V10c0-5.5-4.5-10-10-10c-5.5,0-10,4.5-10,10v60C246,75.5,250.5,80,256,80z"/>
<path class="st0" d="M323.1,77.1l40-40c3.9-3.9,3.9-10.2,0-14.1s-10.2-3.9-14.1,0l-40,40c-3.9,3.9-3.9,10.2,0,14.1
	C312.8,81,319.2,81,323.1,77.1z"/>
<path class="st0" d="M188.9,77.1c3.9,3.9,10.2,3.9,14.1,0c3.9-3.9,3.9-10.2,0-14.1l-40-40c-3.9-3.9-10.2-3.9-14.1,0
	s-3.9,10.2,0,14.1L188.9,77.1z"/>
</svg>
