<?xml version="1.0" encoding="utf-8"?>
<!-- Generator: Adobe Illustrator 22.0.0, SVG Export Plug-In . SVG Version: 6.00 Build 0)  -->
<svg version="1.1" id="Layer_1" xmlns="http://www.w3.org/2000/svg" xmlns:xlink="http://www.w3.org/1999/xlink" x="0px" y="0px"
	 viewBox="0 0 512 512" style="enable-background:new 0 0 512 512;" xml:space="preserve">
<style type="text/css">
	.st0{fill:#D6B045;}
</style>
<g>
	<path class="st0" d="M388.6,350.3l-85.1,42.1c-3-12.6-12.5-23.3-25.7-27.2l-39.4-11.7c-28.4-8.4-65.8-15.4-103,6.1
		c-2.4,1.4-4.5,2.7-6.3,3.9c-7.1,4.5-11.4,7.3-23.8,7.4c-4-9.8-13.6-16.7-24.8-16.7H40.2c-14.7,0-26.7,12-26.7,26.7v93.6
		c0,14.7,12,26.7,26.7,26.7h40.4c14.1,0,25.7-11,26.6-25c16.7,0.2,27.7,1.5,50.3,8.2c12.5,3.7,65.8,19.2,69.9,20.4
		c13.4,3.9,24.7,7.2,36.4,7.2c13.3,0,27.1-4.2,45.3-16.3c0.1-0.1,0.2-0.1,0.3-0.2l117.1-83.4c16.6-11.8,21.5-33.1,11.3-49.6
		C427.8,346.4,407.1,341.2,388.6,350.3L388.6,350.3z M87.3,474.6c0,3.7-3,6.7-6.7,6.7H40.2c-3.7,0-6.7-3-6.7-6.7V381
		c0-3.7,3-6.7,6.7-6.7h40.4c3.7,0,6.7,3,6.7,6.7L87.3,474.6L87.3,474.6z M414.9,395.9l-117,83.3c-26.5,17.6-37.8,14.4-64.9,6.5
		c-4.1-1.2-57.3-16.7-69.8-20.3c-24.3-7.1-36.3-8.7-55.9-9v-65.4c16.9-0.5,24.9-5.6,32.6-10.5c1.8-1.1,3.6-2.3,5.5-3.4
		c24.2-14,50.4-15.3,87.4-4.3l39.4,11.7c9.1,2.7,14.4,12.3,11.7,21.3c0,0,0,0,0,0c-2.7,9.1-12.3,14.3-21.4,11.7l-56.3-16.3
		c-5.3-1.5-10.9,1.5-12.4,6.8c-1.5,5.3,1.5,10.9,6.8,12.4l56.3,16.3c18.2,5.3,37.2-4,44.6-20.9l96-47.5c7.7-3.8,18.2-3.4,23.3,4.9
		C425.3,380.5,422.8,390.2,414.9,395.9L414.9,395.9z"/>
	<path class="st0" d="M215.8,229l41.4,39.9c1.9,1.9,4.4,2.8,6.9,2.8s5-0.9,6.9-2.8l41.4-39.9c0.1-0.1,0.2-0.2,0.3-0.3
		c15.1-15.6,15.1-41.1,0-56.8c-12.5-13-33.8-13.4-48.6-1.5c-14.8-11.9-36.1-11.5-48.6,1.5c-15.1,15.6-15.1,41.1,0,56.8
		C215.7,228.9,215.8,228.9,215.8,229L215.8,229z M230,185.9c6.3-6.5,16.7-4.5,22.8,1.2l0.4,0.4c3,2.8,6,5.7,11,5.7
		c5,0,8.1-2.9,11.1-5.7l0.4-0.3c6-5.6,16.5-7.7,22.8-1.2c7.5,7.8,7.6,21,0.1,28.9l-34.3,33.1l-34.3-33.1
		C222.3,206.8,222.3,193.9,230,185.9L230,185.9z"/>
	<path class="st0" d="M39.9,226.8H94c5.5,0,10-4.5,10-10s-4.5-10-10-10H39.9c-5.5,0-10,4.5-10,10S34.3,226.8,39.9,226.8z"/>
	<path class="st0" d="M42.7,159.4l46.9,22.9c1.4,0.7,2.9,1,4.4,1c3.7,0,7.3-2.1,9-5.6c2.4-5,0.4-10.9-4.6-13.4l-46.9-22.9
		c-5-2.4-11-0.4-13.4,4.6S37.7,156.9,42.7,159.4z"/>
	<path class="st0" d="M89.6,251.4l-46.9,22.9c-5,2.4-7,8.4-4.6,13.4c1.7,3.6,5.3,5.6,9,5.6c1.5,0,3-0.3,4.4-1l46.9-22.9
		c5-2.4,7-8.4,4.6-13.4C100.5,251,94.6,248.9,89.6,251.4L89.6,251.4z"/>
	<path class="st0" d="M488.5,206.8h-54.1c-5.5,0-10,4.5-10,10s4.5,10,10,10h54.1c5.5,0,10-4.5,10-10S494,206.8,488.5,206.8z"/>
	<path class="st0" d="M434.4,183.3c1.5,0,3-0.3,4.4-1l46.9-22.9c5-2.4,7-8.4,4.6-13.4c-2.4-5-8.4-7-13.4-4.6L430,164.3
		c-5,2.4-7,8.4-4.6,13.4C427.2,181.2,430.7,183.3,434.4,183.3L434.4,183.3z"/>
	<path class="st0" d="M485.7,274.3l-46.9-22.9c-5-2.4-11-0.4-13.4,4.6c-2.4,5-0.4,11,4.6,13.4l46.9,22.9c1.4,0.7,2.9,1,4.4,1
		c3.7,0,7.3-2.1,9-5.6C492.7,282.7,490.6,276.7,485.7,274.3L485.7,274.3z"/>
	<path class="st0" d="M137.7,137.5v146.2c0,18.9,15.4,34.3,34.3,34.3h184.3c18.9,0,34.3-15.4,34.3-34.3V137.6
		c15.1-2.8,26.6-16,26.6-31.9V91.4c0-17.9-14.6-32.4-32.5-32.4h-20.7c2.4-8.8,1.8-18.4-2-27.8c-6.7-16.8-22.3-29.2-38.6-31
		c-14.8-1.6-28.3,5.3-37.9,19.6l-21.3,31.4l-21.4-31.4c-9.7-14.2-23.1-21.1-37.9-19.6c-16.3,1.8-31.9,14.2-38.6,31
		c-3.8,9.4-4.4,18.9-2,27.8h-20.7c-17.9,0-32.5,14.6-32.5,32.4v14.2C111.2,121.5,122.6,134.8,137.7,137.5L137.7,137.5z M302.1,31
		c5.5-8,11.9-11.7,19.2-10.9c9.1,1,18.2,8.6,22.2,18.6c1.8,4.4,3.7,12.3-0.9,20.3h-59.5L302.1,31z M184.9,38.7
		c4-10,13.1-17.6,22.2-18.6c7.3-0.8,13.8,2.9,19.2,10.9l19,28h-59.5C181.2,51,183.1,43,184.9,38.7z M131.2,91.4
		c0-6.9,5.6-12.4,12.5-12.4h241.2c6.9,0,12.5,5.6,12.5,12.4v14.2c0,6.9-5.6,12.4-12.5,12.4H264.2c-5.5,0-10,4.5-10,10s4.5,10,10,10
		h106.4v145.7c0,7.9-6.4,14.3-14.3,14.3H172.1c-7.9,0-14.3-6.4-14.3-14.3V138.1h15.1c5.5,0,10-4.5,10-10s-4.5-10-10-10h-29.2
		c-6.9,0-12.5-5.6-12.5-12.4L131.2,91.4L131.2,91.4z"/>
	<path class="st0" d="M217.8,138.1c5.5,0,10-4.5,10-10s-4.5-10-10-10h0c-5.5,0-10,4.5-10,10C207.8,133.6,212.3,138.1,217.8,138.1z"
		/>
</g>
</svg>
