<?xml version="1.0" encoding="utf-8"?>
<!-- Generator: Adobe Illustrator 22.0.0, SVG Export Plug-In . SVG Version: 6.00 Build 0)  -->
<svg version="1.1" id="Capa_1" xmlns="http://www.w3.org/2000/svg" xmlns:xlink="http://www.w3.org/1999/xlink" x="0px" y="0px"
	 viewBox="0 0 512 512" style="enable-background:new 0 0 512 512;" xml:space="preserve">
<style type="text/css">
	.st0{fill:#D6B045;}
</style>
<g>
	<g>
		<path class="st0" d="M475.6,241h-15.2c3.8-15.4,7.9-36.8,9.3-62.3c0.2-4.1-2.9-7.7-7.1-7.9c-4.1-0.3-7.7,2.9-7.9,7.1
			c-1.5,26.5-5.9,48.3-9.8,63.2h-93.7c3.5-25.9-0.5-47.6-9.2-70.2c-1.3-3.4-17.9-45.2-62-91.3c20.9-20.1,44.4-37.6,70-52.3
			c17.2-9.8,37.5-10.9,55.8-3.1c0,0,0.1,0,0.2,0.1c18.5,7.5,32,22.7,37.1,41.8c6.9,25.5,10.9,51.5,12,77.5c0.2,4.1,3.7,7.3,7.8,7.2
			c4.1-0.2,7.4-3.7,7.2-7.8c-1.1-27-5.3-54.2-12.5-80.7c-6.4-23.7-23.1-42.5-45.9-51.8c-22.6-9.7-47.8-8.3-69.1,3.9
			C315.8,29.6,291.2,48,269.4,69c-19.2-18.5-43.4-37.7-73.2-54.7c-21.3-12.1-46.4-13.5-69.1-3.9c-22.8,9.2-39.5,28.1-45.9,51.8
			C60.4,139.7,69.4,204.5,78.4,241H67.9c-11.8,0-22.7,5.3-29.8,14.7c-7.2,9.3-9.6,21.1-6.6,32.5c4.3,16.4,10.3,32.3,17.9,47.4
			c-15-3.9-23.7-4.2-24.6-4.2c-0.2,0-0.4,0-0.6,0c-13.2,0-23.8,10.3-24.1,23.5c-0.2,6.4,2.2,12.5,6.6,17.2
			c4.4,4.6,10.3,7.3,16.7,7.5c1.1,0.1,17.7,1.6,46.2,14.4c-10.8,2.9-23.9,8.3-36.5,18.3c-3.3,2.6-3.8,7.3-1.3,10.5
			c1.5,1.9,3.7,2.9,5.9,2.9c1.6,0,3.3-0.5,4.6-1.6c21.1-16.6,43.9-18.3,50.1-18.5c27.6,15.4,47.4,31.5,56.1,37.9h-13.3
			c-23.4,0-42.4,19-42.4,42.4v5.7c0,9,7.3,16.4,16.4,16.4h28c22.1,0,42.4-17.3,42.4-43.7c30.3,18.1,61.1,30.6,90.9,36.5
			c4.1,0.8,8-1.8,8.8-5.9c0.8-4.1-1.8-8-5.9-8.8c-40-8-82.2-28.4-122.1-59.2c-78.2-60.3-127-62.3-127.5-62.3
			c-2.4-0.1-4.7-1.1-6.4-2.8c-1.7-1.8-2.6-4.1-2.5-6.5c0.1-4.9,4.2-8.9,9.1-8.9l0.2,0c1,0,14.2,0.5,37,8.5c0.3,0.1,0.5,0.3,0.8,0.3
			c31.4,11,62,29.1,89.2,48.9c2.3,1.7,5.3,1.9,7.8,0.6c6.6-3.4,2.4-9.1,5.8-25.7c2.6-12.9,20.6-8.6,17.9,3.3
			c-4.1,19.2,1.6,45.9,7.6,49.7c23.9,15,47.7,25.9,70.9,32.4c6.5,1.8,13,3.3,19.4,4.5c1.5,0.3,2.9,0.5,4.4,0.7c0.1,0,0.1,0,0.2,0
			c35.8,5.5,67.8-0.5,92.8-17.4c4.2-2.8,9.8-1.7,12.6,2.5c2.8,4.2,1.7,9.8-2.5,12.6c-22.2,14.9-48.3,22.5-77.8,22.5
			c-1,0-2.1,0-3.1,0l-0.2,0c-4.1-0.1-7.6,3.2-7.6,7.4c-0.1,4.1,3.2,7.6,7.4,7.6l0.2,0c1.1,0,2.3,0,3.4,0c32.5,0,61.5-8.4,86.2-25.1
			c11-7.4,13.9-22.4,6.5-33.5c-2-3-4.6-5.4-7.5-7.1c13.7-8,26.8-17.4,38.9-28.1c37.6-33.1,64-76.2,76.3-124.4
			C516.7,263.5,499.3,241,475.6,241z M164.6,458.5v7l0,0c0,15.1-12.3,27.4-27.4,27.4h-28c-0.8,0-1.4-0.6-1.4-1.4v-5.7
			c0-15.1,12.3-27.4,27.4-27.4H164.6z M95.7,66.1c5.1-19.1,18.7-34.3,37.1-41.8c0.1,0,0.1,0,0.2-0.1c18.3-7.9,38.6-6.7,55.8,3.1
			c43.8,25,75,55,95.7,79.9c22.1,26.6,38.3,55.4,43.5,69.1c0,0.1,0.1,0.2,0.1,0.2c8.3,20,11.3,42.1,7.9,64.5H93.9
			C84.9,206.9,75,143.1,95.7,66.1z M496.3,282.9c-1.2,4.8-2.6,9.6-4.2,14.3H240.9c-4.1,0-7.5,3.4-7.5,7.5s3.4,7.5,7.5,7.5h245.8
			c-5.4,13.2-11.9,25.8-19.5,37.7c-0.8-0.3-1.7-0.5-2.7-0.5h-186c-4.1,0-7.5,3.4-7.5,7.5s3.4,7.5,7.5,7.5h178.7
			c-10.5,14-22.5,26.7-35.8,38c-1-0.5-2.2-0.8-3.4-0.8H309.6c-4.1,0-7.5,3.4-7.5,7.5s3.4,7.5,7.5,7.5h93.3
			c-30.4,21-65.8,35-103.8,39.6c-4-0.3-7.9-0.8-11.8-1.4c0,0-0.1,0-0.1,0c-1.3-0.2-2.6-0.4-3.8-0.6c-26.9-4.8-54.8-16.1-83-33.6
			c-7.7-19.8-1.5-36.2-2.6-43.7c-3.8-26.4-42-28.3-47.6-0.9c-0.3,1.5-0.8,4.3-1.2,8.2c-24.3-16.7-51.4-31.9-79.2-42
			c-10.5-18.1-18.5-37.4-23.8-57.6c-1.8-6.8-0.3-13.9,4-19.5c4.3-5.6,10.9-8.8,18-8.8h20.3c19.9,0,367.6,0,387.4,0
			C489.6,256.1,499.8,269.3,496.3,282.9z"/>
	</g>
</g>
</svg>
