<?xml version="1.0" encoding="utf-8"?>
<!-- Generator: Adobe Illustrator 22.0.0, SVG Export Plug-In . SVG Version: 6.00 Build 0)  -->
<svg version="1.1" id="Layer_1" xmlns="http://www.w3.org/2000/svg" xmlns:xlink="http://www.w3.org/1999/xlink" x="0px" y="0px"
	 viewBox="0 0 512 512" style="enable-background:new 0 0 512 512;" xml:space="preserve">
<style type="text/css">
	.st0{fill:#D6B045;}
</style>
<g>
	<g>
		<path class="st0" d="M463.8,340.8c-6.2-4.2-12.6-7.4-19.4-9.7c5.4-3.1,10.6-6.4,15.4-9.9c6.5-4.8,12.5-9.9,17.8-15.4
			c0.4-0.3,0.7-0.7,1-1.1c21.9-22.9,33.3-51.8,33.3-84.7c0-22.5-11.5-51-58.5-72.9c7.9,0.6,16.2,2.4,23.7,6.2
			c1.2,0.6,2.5,0.9,3.8,0.9c3.1,0,6-1.7,7.5-4.6c2.1-4.1,0.5-9.2-3.7-11.4c-26.8-13.7-58.6-7-67.9-4.6c-5.1-1.5-10.4-2.9-15.9-4.2
			c-6.8-20.3-18.6-33.7-33.8-38.1c-19.7-5.7-43.3,5.2-62.8,28.1c-2-4.8-4.3-9.4-6.9-13.8c-12.8-21.8-29.5-33.8-47.2-33.8
			c-17.7,0-34.4,12-47.2,33.8c-2.5,4.3-4.8,9-6.9,13.8c-19.5-22.9-43.2-33.8-62.8-28.1c-16,4.6-28.3,19.2-34.9,41.2
			c-5.1,1.4-10,2.9-14.7,4.5c-8.6-1.6-39-6.4-63.1,0.6c-4.5,1.3-7.1,6-5.8,10.5c1.1,3.7,4.4,6.1,8.1,6.1c0.8,0,1.6-0.1,2.4-0.3
			c7.9-2.3,16.9-3,25.3-3c-38.4,20.2-49.6,45-50.8,65.3C0,217,0,217.7,0,218.3c0,0.6,0,1.2,0,1.8c0,41.4,18,76.4,52.2,101.1
			c42.9,31.1,111.5,46.9,203.8,46.9c9.6,0,18.9-0.2,27.9-0.5c-17,27.7-14,62.8-13.8,64.5c0.2,2.4,1.4,4.6,3.4,6
			c1.5,1.1,3.2,1.7,5,1.7c0.6,0,1.1-0.1,1.7-0.2c41.1-8.2,71.8-24.3,91.2-47.7c1.6-2,3.2-4,4.5-5.9c0.6,1,1.1,2,1.8,3
			c11,16.2,35.7,26.1,73.5,29.4c10.4,0.9,20.2,1.2,28.5,1.2c13.2,0,22.4-0.7,23-0.8c2.6-0.2,5-1.6,6.4-3.9c1.4-2.2,1.7-5,0.8-7.5
			C498.6,376.5,483,354,463.8,340.8z M299.8,220.4c0.3-0.4,0.6-0.7,0.9-1.1c0.6-0.8,1.3-1.6,1.9-2.5c0,0,0,0,0,0
			c0.6-0.9,1.2-1.8,1.8-2.8c0,0,0,0,0,0c0.6-0.9,1.1-1.9,1.7-2.8c0.1-0.1,0.1-0.2,0.2-0.3c0.5-0.9,0.9-1.8,1.4-2.7
			c0.1-0.1,0.1-0.3,0.2-0.4c0.4-0.9,0.8-1.8,1.2-2.7c0.1-0.2,0.1-0.3,0.2-0.5c0.4-0.9,0.7-1.8,1.1-2.7c0.1-0.2,0.1-0.4,0.2-0.5
			c0.3-0.9,0.6-1.8,0.9-2.8c0.1-0.2,0.1-0.4,0.2-0.6c0.3-0.9,0.5-1.8,0.8-2.8c0.1-0.2,0.1-0.5,0.2-0.7c0.2-0.9,0.4-1.9,0.6-2.8
			c0.1-0.3,0.1-0.5,0.2-0.8c0.2-0.9,0.4-1.8,0.5-2.8c0.1-0.3,0.1-0.6,0.2-0.9c0.1-0.9,0.3-1.8,0.4-2.8c0-0.3,0.1-0.7,0.1-1
			c0.1-0.9,0.2-1.8,0.3-2.8c0-0.4,0.1-0.7,0.1-1.1c0.1-0.9,0.1-1.9,0.2-2.9c0-0.4,0-0.7,0.1-1c0-1.3,0.1-2.6,0.1-4
			c0-1.4,0-2.7-0.1-4.1c0-0.3,0-0.6,0-0.9c0-1.1-0.1-2.2-0.2-3.3c0-0.2,0-0.5-0.1-0.7c-0.1-1.2-0.2-2.4-0.3-3.6c0-0.1,0-0.2,0-0.3
			c-0.7-6.6-1.9-13.3-3.6-19.9c16.3-22.9,36.7-35.3,51.7-31c10.5,3,19.2,14.6,23.9,32c0.2,0.8,0.4,1.6,0.6,2.3
			c0.1,0.5,0.2,1,0.3,1.5c0.2,0.7,0.3,1.3,0.4,2c0.1,0.6,0.3,1.3,0.4,1.9c0.1,0.5,0.2,1,0.3,1.6c0.1,0.8,0.3,1.6,0.4,2.4
			c0.1,0.3,0.1,0.7,0.1,1c0.1,1,0.3,2,0.4,3c0,0.2,0,0.3,0.1,0.5c1.3,12.3,0.7,25.3-1.8,37.3c-0.1,0.3-0.1,0.6-0.2,0.9
			c-0.2,0.9-0.4,1.8-0.6,2.6c-0.3,1.2-0.6,2.4-1,3.6c-1.2,4-2.5,7.9-4.1,11.4c-28.5,6.1-55.7,10-81.2,12.1c-0.6-0.7-1.1-1.3-1.6-2
			c-0.1-0.1-0.1-0.2-0.2-0.2C299.2,221.1,299.5,220.8,299.8,220.4z M207.1,139.6c0.1-0.3,0.2-0.6,0.2-0.9
			c8.3-27.7,25.8-49.7,43-49.7s34.8,22,43,49.7c0.1,0.3,0.1,0.6,0.2,0.9c3.1,10.6,4.7,21.7,4.7,31.9c0,1.1,0,2.2-0.1,3.3
			c0,0.5,0,0.9-0.1,1.4c0,0.6-0.1,1.2-0.1,1.8c0,0.6-0.1,1.2-0.2,1.8c0,0.4-0.1,0.8-0.1,1.2c-0.1,0.7-0.2,1.4-0.3,2.1
			c0,0.2-0.1,0.5-0.1,0.7c-0.1,0.8-0.3,1.7-0.4,2.5c0,0,0,0.1,0,0.1c-2.7,14.5-9.6,25.4-20,31.9c-0.2,0.1-0.3,0.2-0.5,0.3
			c-0.4,0.2-0.7,0.4-1.1,0.6c-0.4,0.2-0.8,0.4-1.2,0.6c-0.1,0.1-0.3,0.1-0.4,0.2c-4.3,2.2-9,3.7-14.1,4.5c0,0,0,0-0.1,0
			c-0.7,0.1-1.4,0.2-2,0.3c-0.2,0-0.4,0-0.6,0.1c-0.6,0.1-1.1,0.1-1.7,0.2c-0.4,0-0.8,0.1-1.1,0.1c-0.4,0-0.8,0.1-1.3,0.1
			c-0.8,0-1.7,0.1-2.6,0.1s-1.7,0-2.6-0.1c-0.4,0-0.8,0-1.3-0.1c-0.4,0-0.8,0-1.1-0.1c-0.6,0-1.1-0.1-1.7-0.2c-0.2,0-0.4,0-0.6-0.1
			c-0.7-0.1-1.4-0.2-2-0.3c0,0,0,0-0.1,0c-5.1-0.8-9.9-2.3-14.1-4.5c-0.1-0.1-0.3-0.1-0.4-0.2c-0.4-0.2-0.8-0.4-1.2-0.6
			c-0.4-0.2-0.7-0.4-1.1-0.6c-0.2-0.1-0.3-0.2-0.5-0.3c-10.4-6.5-17.3-17.4-20-31.9c0,0,0-0.1,0-0.1c-0.2-0.8-0.3-1.6-0.4-2.5
			c0-0.2-0.1-0.5-0.1-0.7c-0.1-0.7-0.2-1.4-0.3-2.1c0-0.4-0.1-0.8-0.1-1.2c-0.1-0.6-0.1-1.2-0.2-1.8c0-0.6-0.1-1.2-0.1-1.8
			c0-0.5-0.1-0.9-0.1-1.4c0-1.1-0.1-2.2-0.1-3.3C202.4,161.3,204,150.2,207.1,139.6z M113.7,141.7c0-0.1,0-0.1,0-0.2
			c4.4-17.3,13-30.5,24.4-33.8c15-4.3,35.4,8.1,51.7,31c-1.7,6.6-2.9,13.2-3.6,19.8c0,0.1,0,0.2,0,0.3c-0.1,1.2-0.2,2.4-0.3,3.5
			c0,0.3,0,0.5-0.1,0.8c-0.1,1.1-0.1,2.2-0.2,3.3c0,0.3,0,0.6,0,0.9c-0.1,1.4-0.1,2.7-0.1,4.1c0,1.3,0,2.7,0.1,4c0,0.3,0,0.7,0.1,1
			c0,1,0.1,1.9,0.2,2.9c0,0.4,0.1,0.7,0.1,1.1c0.1,0.9,0.2,1.9,0.3,2.8c0,0.3,0.1,0.7,0.1,1c0.1,0.9,0.2,1.9,0.4,2.8
			c0,0.3,0.1,0.6,0.1,0.9c0.2,0.9,0.3,1.9,0.5,2.8c0.1,0.3,0.1,0.5,0.2,0.8c0.2,1,0.4,1.9,0.7,2.8c0.1,0.2,0.1,0.4,0.2,0.7
			c0.2,1,0.5,1.9,0.8,2.8c0.1,0.2,0.1,0.4,0.2,0.6c0.3,1,0.6,1.9,0.9,2.8c0.1,0.2,0.1,0.3,0.2,0.5c0.3,0.9,0.7,1.9,1.1,2.8
			c0.1,0.1,0.1,0.3,0.2,0.4c0.4,0.9,0.8,1.9,1.2,2.8c0.1,0.1,0.1,0.2,0.2,0.3c0.5,0.9,0.9,1.9,1.4,2.8c0,0.1,0.1,0.2,0.1,0.2
			c1.6,2.9,3.4,5.7,5.4,8.2c0.3,0.4,0.6,0.7,0.9,1.1c0.3,0.4,0.6,0.8,0.9,1.1c-0.1,0.1-0.1,0.2-0.2,0.2c-0.5,0.7-1.1,1.4-1.7,2.1
			c-0.6-0.1-1.3-0.1-1.9-0.2c-2.7-0.2-5.4-0.5-8.1-0.8c-0.5-0.1-1.1-0.1-1.6-0.2c-3-0.3-6.1-0.6-9.1-1c-0.1,0-0.2,0-0.3,0
			c-3.3-0.4-6.5-0.8-9.8-1.3c-0.3,0-0.6-0.1-1-0.1c-3.2-0.4-6.4-0.9-9.6-1.4c-0.1,0-0.2,0-0.3-0.1c-2.9-0.5-5.7-0.9-8.6-1.4
			c-0.7-0.1-1.4-0.2-2.1-0.4c-2.6-0.5-5.1-0.9-7.7-1.4c-1.1-0.2-2.2-0.4-3.2-0.6c-2.2-0.4-4.5-0.9-6.7-1.4c-1.3-0.3-2.6-0.6-3.9-0.9
			c-1.4-0.3-2.9-0.6-4.3-1c-1-0.2-2.1-0.5-3.1-0.7c-1.5-3.4-2.8-7-3.9-10.8c-0.3-1.2-0.6-2.3-0.9-3.5
			C109.5,179.3,109.4,158.9,113.7,141.7z M358.3,381.3c-15.4,18.5-39.4,31.8-71.6,39.7c0.4-13.7,3.5-38.8,19.5-54.5
			c0.7-0.1,1.4-0.1,2.1-0.2c1.9-0.1,3.8-0.3,5.7-0.5c1.2-0.1,2.4-0.2,3.6-0.3c1.5-0.1,3-0.3,4.4-0.4c1.3-0.1,2.6-0.3,3.9-0.4
			c1.3-0.1,2.6-0.3,4-0.4c1.4-0.2,2.7-0.3,4.1-0.5c1.2-0.1,2.4-0.3,3.5-0.5c1.4-0.2,2.9-0.4,4.3-0.6c1-0.1,1.9-0.3,2.9-0.4
			c1.6-0.2,3.2-0.5,4.8-0.7c0.2,0,0.4-0.1,0.5-0.1c7.5-1.2,14.7-2.5,21.7-4C369.6,364.2,365.5,372.6,358.3,381.3z M383.2,337.4
			c-0.6,0.2-1.3,0.3-2,0.5c-0.1,0-0.2,0-0.3,0.1c-22.9,5.9-49.5,9.9-78.9,11.9c0,0-0.1,0-0.1,0c-14.6,1-29.9,1.5-46,1.5
			c-88.7,0-153.9-14.7-193.9-43.7c-25.3-18.3-40-42.1-44.1-70.8c10,7.6,24.9,17.8,45,28.5c1.3,0.7,2.6,1,4,1c3,0,5.9-1.6,7.5-4.5
			c2.2-4.1,0.6-9.2-3.5-11.4c-29.5-15.7-47.2-30.3-53.7-36.1c2.4-19,17.8-42.6,69.5-60.2c0.3-0.1,0.7-0.2,1-0.3
			c2.2-0.8,4.6-1.5,6.9-2.2c-2.1,16.2-1.2,33.3,2.7,49c0.1,0.2,0.1,0.4,0.2,0.7c0.3,1.3,0.7,2.5,1,3.8c0.1,0.3,0.2,0.7,0.3,1
			c-25.1-7-39.3-13.3-39.7-13.4c-4.3-1.9-9.2,0-11.2,4.2c-1.9,4.3,0,9.2,4.2,11.2c1.8,0.8,44.1,19.6,114.9,29.3c0.1,0,0.2,0,0.3,0
			c0.4,0.1,0.8,0.1,1.2,0.2c3.3,0.4,6.8,0.9,10.3,1.3c0,0,0.1,0,0.1,0c3.5,0.4,7.2,0.8,10.9,1.2c0.5,0,0.9,0.1,1.4,0.1
			c3,0.3,6.1,0.6,9.2,0.8c0.7,0.1,1.4,0.1,2.1,0.2c0.2,0,0.4,0,0.6,0c14.3,1.1,29.8,1.7,46.3,1.7c14.9,0,30.7-0.5,47.2-1.8
			c0.1,0,0.1,0,0.2,0c0.1,0,0.3,0,0.4,0c0,0,0.1,0,0.1,0c0.2,0,0.4,0,0.6,0c3.8-0.3,7.6-0.6,11.4-1c26.6-2.5,53.5-6.8,80-12.7
			c0.2,0,0.4-0.1,0.6-0.2c21.9-4.9,44.6-11.1,67.9-18.9c4.4-1.5,6.8-6.3,5.3-10.7c-1.5-4.4-6.3-6.8-10.7-5.3
			c-17.4,5.9-34.4,10.8-51,14.9c0.2-0.7,0.5-1.4,0.7-2.2v0c0.4-1.2,0.7-2.5,1-3.8c0.1-0.3,0.2-0.7,0.2-1c0.2-1,0.5-2,0.7-3
			c0.1-0.3,0.1-0.6,0.2-0.9c0.2-1.1,0.5-2.2,0.7-3.4c0-0.2,0.1-0.3,0.1-0.5c2.2-12.6,2.6-25.9,1.2-38.6c0-0.1,0-0.2,0-0.4
			c-0.1-1.2-0.3-2.4-0.5-3.6c0-0.3-0.1-0.5-0.1-0.8c0-0.3-0.1-0.6-0.1-0.9c26.8,7.1,48,16.3,63.2,27.4c12.7,9.2,20.8,19.6,24.3,31
			c-7.4,5.8-27.9,20.3-65.1,35.6c-4.3,1.8-6.4,6.7-4.6,11c1.3,3.3,4.5,5.2,7.8,5.2c1.1,0,2.2-0.2,3.2-0.6
			c29.4-12.2,49.1-23.9,60.6-31.8c-1.2,25.6-10.3,47.6-27.1,65.7c-86.7,15.9-159.8,17-220.1,10.4c56.7-6.1,108.2-16.8,153.6-32
			c4.4-1.5,6.8-6.3,5.3-10.7c-1.5-4.4-6.3-6.8-10.7-5.3c-29.2,9.7-61,17.6-95.2,23.5c-30-2.9-108.6-13.6-129.6-29.9
			c-3.7-2.9-9-2.2-11.8,1.5c-2.9,3.7-2.2,9,1.5,11.8c12.3,9.5,38.5,17.9,78,25c-19.4,1.9-39.5,3.4-60.1,4.2
			c-30.5-7.2-56.2-16.2-77.3-25.3c-4.3-1.8-9.2,0.1-11.1,4.4s0.1,9.2,4.4,11.1c21.9,9.4,48.6,18.7,80.2,26.2
			c0.6,0.2,1.3,0.4,1.9,0.4c39.8,9.3,87.3,15.6,142.8,15.6c37,0,77.7-2.8,121.9-9.5c-8.8,5.5-18.6,10.3-29.4,14.6
			c-0.1,0-0.1,0-0.2,0.1c-8.8,3.5-18.3,6.6-28.3,9.3C383.5,337.3,383.4,337.4,383.2,337.4z M452.5,401.7
			c-31.5-2.8-53.1-10.6-60.8-22c-4.7-7-4.7-15.8,0.1-27.1c5-1.4,9.9-3,14.7-4.6c0.1,0,0.2-0.1,0.3-0.1c1.8-0.6,3.5-1.2,5.2-1.8
			c0.2-0.1,0.4-0.2,0.6-0.2c1.4-0.5,2.8-1,4.2-1.6c30.7-1.7,55.8,18.5,73,58.4C480.6,402.9,466.9,402.9,452.5,401.7z"/>
	</g>
</g>
</svg>
