<?xml version="1.0" encoding="utf-8"?>
<!-- Generator: Adobe Illustrator 22.0.0, SVG Export Plug-In . SVG Version: 6.00 Build 0)  -->
<svg version="1.1" id="Layer_3" xmlns="http://www.w3.org/2000/svg" xmlns:xlink="http://www.w3.org/1999/xlink" x="0px" y="0px"
	 viewBox="0 0 512 512" style="enable-background:new 0 0 512 512;" xml:space="preserve">
<style type="text/css">
	.st0{fill:#D6B045;}
</style>
<g>
	<path class="st0" d="M264,310.9c13.8-3.6,24-16,24-30.9c0-17.6-14.4-32-32-32c-8.8,0-16-7.2-16-16s7.2-16,16-16s16,7.2,16,16h16
		c0-14.9-10.2-27.3-24-30.9V184h-16v17.1c-13.8,3.6-24,16-24,30.9c0,17.6,14.4,32,32,32c8.8,0,16,7.2,16,16s-7.2,16-16,16
		s-16-7.2-16-16h-16c0,14.9,10.2,27.3,24,30.9V328h16V310.9z"/>
	<path class="st0" d="M256,152c-57.3,0-104,46.7-104,104h16c0-48.5,39.5-88,88-88V152z"/>
	<path class="st0" d="M344,256c0,48.5-39.5,88-88,88v16c57.3,0,104-46.7,104-104H344z"/>
	<path class="st0" d="M172.8,65.3c-25.1,11-47.5,26.5-66.6,46.3l11.5,11.1c17.6-18.3,38.3-32.7,61.4-42.8L172.8,65.3z"/>
	<path class="st0" d="M206.1,54c-5.6,1.4-11.2,3-16.7,4.8l5.1,15.2c5-1.7,10.2-3.2,15.3-4.5L206.1,54z"/>
	<path class="st0" d="M239.4,48.7c-5.5,0.4-11.1,1.1-16.6,2l2.5,15.8c5.2-0.8,10.3-1.4,15.4-1.8L239.4,48.7z"/>
	<path class="st0" d="M256,24c62,0,120.2,24.1,164,68c3,3,8.3,3,11.3,0L448,75.3V136h-60.7l15.8-15.8c3.1-3.1,3.1-8.2,0-11.3
		C363.8,69.6,311.6,48,256,48v16c48.6,0,94.5,17.9,130,50.7l-23.6,23.6c-2.3,2.3-3,5.7-1.7,8.7s4.2,4.9,7.4,4.9h88c4.4,0,8-3.6,8-8
		V56c0-3.2-2-6.2-4.9-7.4c-3-1.3-6.4-0.6-8.7,1.7l-24.7,24.7C379.5,31.8,319.6,8,256,8C119.3,8,8,119.2,8,256h16
		C24,128.1,128.1,24,256,24z"/>
	<path class="st0" d="M405.8,400.4l-11.5-11.1c-17.6,18.3-38.3,32.7-61.4,42.8l6.4,14.7C364.3,435.7,386.7,420.1,405.8,400.4z"/>
	<path class="st0" d="M305.9,458c5.6-1.4,11.2-3,16.7-4.8l-5.1-15.2c-5,1.7-10.2,3.2-15.3,4.5L305.9,458z"/>
	<path class="st0" d="M272.6,463.3c5.5-0.4,11.1-1.1,16.6-2l-2.5-15.8c-5.2,0.8-10.3,1.4-15.4,1.8L272.6,463.3z"/>
	<path class="st0" d="M488,256c0,127.9-104.1,232-232,232c-62,0-120.2-24.1-164-68c-3-3-8.3-3-11.3,0L64,436.7V376h60.7l-15.8,15.8
		c-3.1,3.1-3.1,8.2,0,11.3C148.2,442.4,200.4,464,256,464v-16c-48.6,0-94.5-17.9-130-50.7l23.6-23.6c2.3-2.3,3-5.7,1.7-8.7
		s-4.2-4.9-7.4-4.9H56c-4.4,0-8,3.6-8,8v88c0,3.2,2,6.2,4.9,7.4c3,1.2,6.4,0.6,8.7-1.7l24.7-24.7c46.1,43.3,106,67.1,169.6,67.1
		c136.7,0,248-111.2,248-248H488z"/>
	<path class="st0" d="M392,256c0-75-61-136-136-136s-136,61-136,136s61,136,136,136S392,331,392,256z M256,376
		c-66.2,0-120-53.8-120-120s53.8-120,120-120s120,53.8,120,120S322.2,376,256,376z"/>
</g>
</svg>
